<svg width="43" height="22" viewBox="0 0 43 22" fill="none" xmlns="http://www.w3.org/2000/svg">
<path d="M11.2289 18.7414C11.2289 18.7414 11.5333 19.2278 11.351 19.9269C11.1711 20.6164 10.6069 20.9509 10.5912 20.9601L0.650756 6.52069C0.644442 6.51131 0.422924 6.17762 0.528686 5.57831C0.636173 4.97048 1.25818 4.39276 1.25818 4.39276L11.2289 18.7414ZM16.0345 18.7414C16.0376 18.7463 16.3381 19.2313 16.1566 19.9269C15.9742 20.6261 15.3959 20.9601 15.3959 20.9601L8.0072 10.1691C8.0072 10.1691 7.77794 9.83457 7.88513 9.22675C7.99128 8.62522 8.60169 8.05325 8.61462 8.0412L16.0345 18.7414ZM33.392 8.0412C33.4053 8.05367 34.0153 8.62544 34.1215 9.22675C34.2286 9.83457 33.9994 10.1691 33.9994 10.1691L26.6107 20.9601C26.6107 20.9601 26.0324 20.6261 25.85 19.9269C25.6683 19.2307 25.9696 18.7454 25.972 18.7414L33.392 8.0412ZM40.7787 4.39276C40.7787 4.39276 41.4007 4.97049 41.5082 5.57831C41.6145 6.18075 41.3902 6.51466 41.3861 6.52069L31.4467 20.9601C31.4467 20.9601 30.8683 20.6261 30.6859 19.9269C30.5036 19.2278 30.808 18.7414 30.808 18.7414L40.7787 4.39276ZM27.9808 11.8107L22.2045 20.1398C22.1939 20.1536 21.8273 20.6261 20.9886 20.6262C20.1502 20.6261 19.8128 20.1537 19.8031 20.1398L14.058 11.8107L20.9886 0.927917L27.9808 11.8107ZM16.0941 11.8107L21.0189 18.9543L25.9437 11.8107L20.9994 4.11249L16.0941 11.8107Z" fill="#9C7264"/>
<path d="M11.2289 18.7414L11.6527 18.4761L11.6463 18.4659L11.6395 18.4561L11.2289 18.7414ZM11.351 19.9269L11.8348 20.0532L11.8348 20.0531L11.351 19.9269ZM10.5912 20.9601L10.1793 21.2437L10.443 21.6266L10.844 21.3915L10.5912 20.9601ZM0.650756 6.52069L0.235989 6.79997L0.238912 6.80421L0.650756 6.52069ZM0.528686 5.57831L0.0363247 5.49124L0.0362937 5.49142L0.528686 5.57831ZM1.25818 4.39276L1.66878 4.10744L1.34003 3.63434L0.917908 4.02641L1.25818 4.39276ZM16.0345 18.7414L16.4591 18.4774L16.4525 18.4667L16.4454 18.4565L16.0345 18.7414ZM16.1566 19.9269L16.6404 20.0532L16.6404 20.0531L16.1566 19.9269ZM15.3959 20.9601L14.9833 21.2426L15.2449 21.6247L15.6459 21.3931L15.3959 20.9601ZM8.0072 10.1691L8.41976 9.88665L8.41966 9.88649L8.0072 10.1691ZM7.88513 9.22675L7.39274 9.13985L7.39273 9.13991L7.88513 9.22675ZM8.61462 8.0412L9.0255 7.75628L8.69622 7.28143L8.27362 7.67553L8.61462 8.0412ZM33.392 8.0412L33.733 7.67555L33.3104 7.28139L32.9811 7.75628L33.392 8.0412ZM34.1215 9.22675L34.6139 9.13991L34.6138 9.13985L34.1215 9.22675ZM33.9994 10.1691L33.5869 9.8865L33.5868 9.88665L33.9994 10.1691ZM26.6107 20.9601L26.3606 21.3931L26.7617 21.6247L27.0233 21.2426L26.6107 20.9601ZM25.85 19.9269L25.3662 20.0531L25.3662 20.0532L25.85 19.9269ZM25.972 18.7414L25.5612 18.4565L25.5541 18.4667L25.5476 18.4772L25.972 18.7414ZM40.7787 4.39276L41.119 4.02642L40.6968 3.63433L40.3681 4.10744L40.7787 4.39276ZM41.5082 5.57831L42.0006 5.49142L42.0005 5.49122L41.5082 5.57831ZM41.3861 6.52069L41.798 6.8042L41.8001 6.8011L41.3861 6.52069ZM31.4467 20.9601L31.1966 21.3931L31.5966 21.6241L31.8585 21.2436L31.4467 20.9601ZM30.6859 19.9269L30.2021 20.0531L30.2021 20.0532L30.6859 19.9269ZM30.808 18.7414L30.3974 18.4561L30.3905 18.4659L30.3841 18.4761L30.808 18.7414ZM27.9808 11.8107L28.3917 12.0957L28.582 11.8213L28.4015 11.5405L27.9808 11.8107ZM22.2045 20.1398L22.602 20.4431L22.6089 20.4341L22.6153 20.4248L22.2045 20.1398ZM20.9886 20.6262L20.9886 21.1262H20.9887L20.9886 20.6262ZM19.8031 20.1398L19.3915 20.4237L19.3937 20.4269L19.8031 20.1398ZM14.058 11.8107L13.6362 11.5421L13.4582 11.8218L13.6464 12.0946L14.058 11.8107ZM20.9886 0.927917L21.4093 0.657646L20.9868 2.63453e-05L20.5669 0.659335L20.9886 0.927917ZM16.0941 11.8107L15.6724 11.542L15.4943 11.8216L15.6825 12.0945L16.0941 11.8107ZM21.0189 18.9543L20.6073 19.2381L21.0189 19.8352L21.4306 19.2381L21.0189 18.9543ZM25.9437 11.8107L26.3554 12.0945L26.5443 11.8205L26.3644 11.5405L25.9437 11.8107ZM20.9994 4.11249L21.4201 3.84228L20.9977 3.18466L20.5777 3.8438L20.9994 4.11249ZM11.2289 18.7414C10.8051 19.0067 10.8049 19.0065 10.8048 19.0063C10.8048 19.0063 10.8047 19.0061 10.8046 19.0059C10.8045 19.0057 10.8043 19.0055 10.8042 19.0052C10.8039 19.0048 10.8036 19.0044 10.8034 19.004C10.8029 19.0032 10.8025 19.0025 10.8021 19.0019C10.8014 19.0007 10.801 19 10.8008 18.9996C10.8004 18.9989 10.8009 18.9999 10.8023 19.0024C10.805 19.0074 10.8108 19.0185 10.8184 19.0352C10.8337 19.0688 10.8555 19.1236 10.8738 19.1956C10.9103 19.3385 10.9332 19.5475 10.8671 19.8007L11.351 19.9269L11.8348 20.0531C11.9511 19.6072 11.913 19.2235 11.8428 18.9484C11.8078 18.8114 11.7649 18.7008 11.7288 18.6214C11.7107 18.5816 11.6941 18.5492 11.6809 18.5249C11.6743 18.5128 11.6685 18.5026 11.6638 18.4944C11.6614 18.4903 11.6592 18.4868 11.6574 18.4837C11.6565 18.4822 11.6556 18.4808 11.6548 18.4795C11.6544 18.4789 11.6541 18.4783 11.6537 18.4777C11.6535 18.4774 11.6534 18.4772 11.6532 18.4769C11.6531 18.4768 11.653 18.4766 11.6529 18.4765C11.6528 18.4763 11.6527 18.4761 11.2289 18.7414ZM11.351 19.9269L10.8671 19.8007C10.7396 20.2898 10.3259 20.5361 10.3383 20.5288L10.5912 20.9601L10.844 21.3915C10.8878 21.3658 11.6026 20.943 11.8348 20.0532L11.351 19.9269ZM10.5912 20.9601L11.003 20.6766L1.0626 6.23717L0.650756 6.52069L0.238912 6.80421L10.1793 21.2437L10.5912 20.9601ZM0.650756 6.52069L1.0655 6.24143C1.10835 6.30507 0.944114 6.10133 1.02108 5.6652L0.528686 5.57831L0.0362937 5.49142C-0.0982653 6.25392 0.180531 6.71756 0.236011 6.79995L0.650756 6.52069ZM0.528686 5.57831L1.02105 5.66538C1.0537 5.48074 1.17725 5.26181 1.33058 5.06177C1.40248 4.96796 1.47199 4.88977 1.52319 4.83545C1.5486 4.80848 1.56903 4.78789 1.58237 4.77473C1.58903 4.76817 1.59388 4.76349 1.59665 4.76084C1.59804 4.75951 1.59891 4.75869 1.59922 4.7584C1.59937 4.75825 1.59939 4.75824 1.59926 4.75836C1.5992 4.75842 1.5991 4.75851 1.59896 4.75864C1.5989 4.7587 1.59882 4.75877 1.59873 4.75885C1.59869 4.75889 1.59862 4.75896 1.5986 4.75898C1.59852 4.75905 1.59845 4.75912 1.25818 4.39276C0.917908 4.02641 0.917827 4.02648 0.917744 4.02656C0.917713 4.02659 0.917627 4.02667 0.917565 4.02672C0.917441 4.02684 0.917307 4.02696 0.917164 4.0271C0.916878 4.02736 0.916553 4.02767 0.91619 4.02801C0.915464 4.02869 0.914587 4.02951 0.913562 4.03047C0.911513 4.0324 0.908873 4.0349 0.905679 4.03796C0.899293 4.04406 0.890675 4.05239 0.880113 4.06281C0.859013 4.08362 0.83001 4.11292 0.795435 4.14961C0.726641 4.2226 0.633934 4.32683 0.5369 4.45343C0.352353 4.6942 0.111162 5.06804 0.0363248 5.49124L0.528686 5.57831ZM1.25818 4.39276L0.847578 4.67808L10.8183 19.0267L11.2289 18.7414L11.6395 18.4561L1.66878 4.10744L1.25818 4.39276ZM16.0345 18.7414L15.6099 19.0054C15.5819 18.9604 15.8039 19.2982 15.6728 19.8007L16.1566 19.9269L16.6404 20.0531C16.8723 19.1644 16.4932 18.5321 16.4591 18.4774L16.0345 18.7414ZM16.1566 19.9269L15.6728 19.8007C15.6096 20.043 15.4762 20.2277 15.3506 20.3559C15.2885 20.4193 15.2313 20.4658 15.1916 20.4951C15.172 20.5097 15.1571 20.5197 15.1488 20.5251C15.1446 20.5278 15.1422 20.5293 15.1416 20.5296C15.1413 20.5298 15.1415 20.5297 15.1422 20.5293C15.1425 20.5291 15.143 20.5288 15.1436 20.5285C15.1439 20.5283 15.1442 20.5281 15.1446 20.5279C15.1448 20.5278 15.145 20.5276 15.1452 20.5275C15.1453 20.5275 15.1454 20.5274 15.1455 20.5274C15.1456 20.5273 15.1458 20.5272 15.3959 20.9601C15.6459 21.3931 15.6461 21.393 15.6463 21.3929C15.6463 21.3929 15.6465 21.3928 15.6466 21.3927C15.6469 21.3926 15.6471 21.3924 15.6474 21.3923C15.6479 21.392 15.6484 21.3917 15.649 21.3913C15.6501 21.3907 15.6515 21.3899 15.6529 21.389C15.6558 21.3873 15.6592 21.3852 15.6632 21.3828C15.6712 21.3779 15.6813 21.3716 15.6934 21.3638C15.7174 21.3482 15.7491 21.3266 15.7865 21.2989C15.8611 21.2438 15.9598 21.1631 16.0651 21.0556C16.2743 20.842 16.5212 20.5101 16.6404 20.0532L16.1566 19.9269ZM15.3959 20.9601L15.8084 20.6777L8.41976 9.88665L8.0072 10.1691L7.59464 10.4516L14.9833 21.2426L15.3959 20.9601ZM8.0072 10.1691C8.41966 9.88649 8.4198 9.88671 8.41995 9.88692C8.41999 9.88699 8.42014 9.8872 8.42023 9.88734C8.42042 9.88762 8.42061 9.88789 8.42079 9.88816C8.42115 9.8887 8.42151 9.88921 8.42184 9.88972C8.42252 9.89072 8.42314 9.89165 8.42371 9.89252C8.42486 9.89425 8.42579 9.8957 8.42654 9.89688C8.42804 9.89923 8.42878 9.90049 8.42889 9.90068C8.42911 9.90105 8.42682 9.89717 8.42294 9.88917C8.41517 9.87315 8.40118 9.84092 8.38806 9.79323C8.36235 9.69979 8.33774 9.53924 8.37753 9.31358L7.88513 9.22675L7.39273 9.13991C7.32534 9.52208 7.36176 9.83271 7.42388 10.0585C7.45468 10.1704 7.4913 10.2598 7.52317 10.3255C7.53911 10.3584 7.55389 10.3854 7.56623 10.4064C7.57239 10.417 7.57796 10.426 7.58276 10.4336C7.58516 10.4373 7.58738 10.4407 7.58938 10.4438C7.59038 10.4453 7.59133 10.4467 7.59223 10.4481C7.59267 10.4487 7.59311 10.4494 7.59353 10.45C7.59374 10.4503 7.59395 10.4506 7.59415 10.4509C7.59425 10.451 7.5944 10.4513 7.59445 10.4513C7.5946 10.4515 7.59475 10.4518 8.0072 10.1691ZM7.88513 9.22675L8.37752 9.31364C8.4097 9.13131 8.53078 8.91501 8.68246 8.71606C8.82648 8.52715 8.96027 8.40254 8.95563 8.40687L8.61462 8.0412L8.27362 7.67553C8.25605 7.69191 8.07817 7.85931 7.88721 8.10978C7.70391 8.3502 7.46672 8.72066 7.39274 9.13985L7.88513 9.22675ZM8.61462 8.0412L8.20374 8.32612L15.6237 19.0263L16.0345 18.7414L16.4454 18.4565L9.0255 7.75628L8.61462 8.0412ZM33.392 8.0412L33.0509 8.40684C33.0465 8.40272 33.1803 8.52738 33.3243 8.71627C33.4759 8.91518 33.5969 9.13139 33.6291 9.31364L34.1215 9.22675L34.6138 9.13985C34.5399 8.7208 34.3028 8.35047 34.1196 8.11005C33.9287 7.85961 33.7508 7.69215 33.733 7.67555L33.392 8.0412ZM34.1215 9.22675L33.6291 9.31358C33.6688 9.53923 33.6442 9.69979 33.6185 9.79323C33.6054 9.84092 33.5914 9.87315 33.5837 9.88917C33.5798 9.89717 33.5775 9.90105 33.5777 9.90068C33.5778 9.9005 33.5785 9.89924 33.58 9.89688C33.5808 9.8957 33.5817 9.89425 33.5829 9.89252C33.5834 9.89166 33.5841 9.89072 33.5847 9.88972C33.5851 9.88922 33.5854 9.8887 33.5858 9.88816C33.586 9.88789 33.5862 9.88762 33.5864 9.88734C33.5864 9.8872 33.5866 9.88699 33.5866 9.88692C33.5868 9.88671 33.5869 9.8865 33.9994 10.1691C34.4118 10.4518 34.412 10.4515 34.4121 10.4513C34.4122 10.4513 34.4123 10.451 34.4124 10.4509C34.4126 10.4506 34.4129 10.4503 34.4131 10.45C34.4135 10.4494 34.4139 10.4487 34.4144 10.448C34.4153 10.4467 34.4162 10.4453 34.4172 10.4438C34.4192 10.4407 34.4214 10.4373 34.4238 10.4336C34.4286 10.426 34.4342 10.417 34.4404 10.4064C34.4527 10.3854 34.4675 10.3584 34.4834 10.3255C34.5153 10.2598 34.5519 10.1704 34.5827 10.0585C34.6448 9.83271 34.6813 9.52208 34.6139 9.13991L34.1215 9.22675ZM33.9994 10.1691L33.5868 9.88665L26.1982 20.6777L26.6107 20.9601L27.0233 21.2426L34.4119 10.4516L33.9994 10.1691ZM26.6107 20.9601C26.8608 20.5272 26.8609 20.5273 26.8611 20.5274C26.8612 20.5274 26.8613 20.5275 26.8614 20.5275C26.8616 20.5276 26.8618 20.5278 26.862 20.5279C26.8624 20.5281 26.8627 20.5283 26.863 20.5285C26.8636 20.5288 26.8641 20.5291 26.8644 20.5293C26.8651 20.5297 26.8653 20.5298 26.865 20.5296C26.8644 20.5293 26.8619 20.5278 26.8578 20.5251C26.8495 20.5197 26.8346 20.5097 26.815 20.4951C26.7753 20.4658 26.7181 20.4193 26.656 20.3559C26.5304 20.2277 26.397 20.043 26.3338 19.8007L25.85 19.9269L25.3662 20.0532C25.4854 20.5101 25.7323 20.842 25.9415 21.0556C26.0468 21.1631 26.1455 21.2438 26.22 21.2989C26.2575 21.3266 26.2892 21.3482 26.3132 21.3638C26.3252 21.3716 26.3354 21.3779 26.3434 21.3828C26.3473 21.3852 26.3508 21.3873 26.3537 21.389C26.3551 21.3899 26.3564 21.3907 26.3576 21.3913C26.3582 21.3917 26.3587 21.392 26.3592 21.3923C26.3595 21.3924 26.3597 21.3926 26.36 21.3927C26.3601 21.3928 26.3603 21.3929 26.3603 21.3929C26.3605 21.393 26.3606 21.3931 26.6107 20.9601ZM25.85 19.9269L26.3338 19.8007C26.2026 19.2977 26.4251 18.9597 26.3965 19.0056L25.972 18.7414L25.5476 18.4772C25.5141 18.531 25.1341 19.1636 25.3662 20.0531L25.85 19.9269ZM25.972 18.7414L26.3829 19.0263L33.8028 8.32612L33.392 8.0412L32.9811 7.75628L25.5612 18.4565L25.972 18.7414ZM40.7787 4.39276C40.4384 4.75911 40.4383 4.75904 40.4383 4.75897C40.4382 4.75895 40.4382 4.75888 40.4381 4.75884C40.438 4.75876 40.438 4.75869 40.4379 4.75863C40.4378 4.7585 40.4377 4.75841 40.4376 4.75835C40.4375 4.75823 40.4375 4.75824 40.4376 4.75839C40.4379 4.75868 40.4388 4.7595 40.4402 4.76083C40.443 4.76348 40.4478 4.76816 40.4545 4.77472C40.4678 4.78788 40.4883 4.80847 40.5137 4.83544C40.5649 4.88976 40.6344 4.96796 40.7063 5.06177C40.8596 5.26181 40.9832 5.48076 41.0158 5.6654L41.5082 5.57831L42.0005 5.49122C41.9257 5.06804 41.6845 4.69421 41.5 4.45344C41.4029 4.32684 41.3102 4.22262 41.2414 4.14962C41.2069 4.11293 41.1779 4.08363 41.1568 4.06282C41.1462 4.0524 41.1376 4.04407 41.1312 4.03797C41.128 4.03492 41.1254 4.03242 41.1233 4.03049C41.1223 4.02952 41.1214 4.0287 41.1207 4.02802C41.1203 4.02768 41.12 4.02738 41.1197 4.02711C41.1196 4.02697 41.1194 4.02685 41.1193 4.02674C41.1192 4.02668 41.1192 4.0266 41.1191 4.02657C41.119 4.02649 41.119 4.02642 40.7787 4.39276ZM41.5082 5.57831L41.0158 5.6652C41.0931 6.10358 40.9269 6.30712 40.9721 6.24028L41.3861 6.52069L41.8001 6.8011C41.8535 6.72221 42.1358 6.25791 42.0006 5.49142L41.5082 5.57831ZM41.3861 6.52069L40.9743 6.23719L31.0348 20.6766L31.4467 20.9601L31.8585 21.2436L41.798 6.80419L41.3861 6.52069ZM31.4467 20.9601C31.6967 20.5272 31.6969 20.5273 31.697 20.5274C31.6971 20.5274 31.6973 20.5275 31.6973 20.5275C31.6975 20.5276 31.6977 20.5278 31.6979 20.5279C31.6983 20.5281 31.6986 20.5283 31.6989 20.5285C31.6995 20.5288 31.7 20.5291 31.7004 20.5293C31.701 20.5297 31.7012 20.5298 31.7009 20.5296C31.7004 20.5293 31.6979 20.5278 31.6937 20.5251C31.6854 20.5197 31.6706 20.5097 31.6509 20.4951C31.6113 20.4658 31.554 20.4193 31.4919 20.3559C31.3663 20.2277 31.2329 20.043 31.1697 19.8007L30.6859 19.9269L30.2021 20.0532C30.3213 20.5101 30.5683 20.842 30.7775 21.0556C30.8827 21.1631 30.9815 21.2438 31.056 21.2989C31.0934 21.3266 31.1251 21.3482 31.1492 21.3638C31.1612 21.3716 31.1713 21.3779 31.1793 21.3828C31.1833 21.3852 31.1867 21.3873 31.1896 21.389C31.1911 21.3899 31.1924 21.3907 31.1935 21.3913C31.1941 21.3917 31.1947 21.392 31.1952 21.3923C31.1954 21.3924 31.1957 21.3926 31.1959 21.3927C31.196 21.3928 31.1962 21.3929 31.1963 21.3929C31.1964 21.393 31.1966 21.3931 31.4467 20.9601ZM30.6859 19.9269L31.1697 19.8008C31.1037 19.5476 31.1266 19.3385 31.1631 19.1956C31.1814 19.1236 31.2032 19.0688 31.2185 19.0352C31.2261 19.0185 31.2319 19.0074 31.2346 19.0024C31.236 18.9999 31.2365 18.9989 31.2361 18.9996C31.2359 18.9999 31.2355 19.0007 31.2348 19.0019C31.2344 19.0024 31.234 19.0031 31.2335 19.0039C31.2333 19.0043 31.233 19.0048 31.2327 19.0052C31.2326 19.0054 31.2324 19.0057 31.2323 19.0059C31.2322 19.006 31.2321 19.0062 31.2321 19.0063C31.2319 19.0065 31.2318 19.0066 30.808 18.7414C30.3841 18.4761 30.384 18.4763 30.3839 18.4765C30.3839 18.4766 30.3837 18.4768 30.3837 18.4769C30.3835 18.4772 30.3833 18.4775 30.3831 18.4778C30.3828 18.4783 30.3824 18.4789 30.382 18.4796C30.3812 18.4808 30.3804 18.4822 30.3795 18.4838C30.3776 18.4868 30.3755 18.4904 30.3731 18.4945C30.3683 18.5026 30.3625 18.5128 30.3559 18.525C30.3427 18.5493 30.3262 18.5816 30.3081 18.6214C30.272 18.7009 30.229 18.8114 30.1941 18.9484C30.1239 19.2235 30.0858 19.6072 30.2021 20.0531L30.6859 19.9269ZM30.808 18.7414L31.2186 19.0267L41.1893 4.67808L40.7787 4.39276L40.3681 4.10744L30.3974 18.4561L30.808 18.7414ZM27.9808 11.8107L27.57 11.5258L21.7936 19.8549L22.2045 20.1398L22.6153 20.4248L28.3917 12.0957L27.9808 11.8107ZM22.2045 20.1398L21.8069 19.8366C21.8493 19.781 21.6135 20.1261 20.9886 20.1262L20.9886 20.6262L20.9887 21.1262C22.0411 21.1261 22.5386 20.5262 22.602 20.4431L22.2045 20.1398ZM20.9886 20.6262L20.9887 20.1262C20.37 20.1261 20.1668 19.7877 20.2125 19.8528L19.8031 20.1398L19.3937 20.4269C19.4588 20.5197 19.9303 21.126 20.9886 21.1262L20.9886 20.6262ZM19.8031 20.1398L20.2147 19.8559L14.4696 11.5268L14.058 11.8107L13.6464 12.0946L19.3915 20.4237L19.8031 20.1398ZM14.058 11.8107L14.4797 12.0793L21.4104 1.1965L20.9886 0.927917L20.5669 0.659335L13.6362 11.5421L14.058 11.8107ZM20.9886 0.927917L20.568 1.19819L27.5602 12.081L27.9808 11.8107L28.4015 11.5405L21.4093 0.657646L20.9886 0.927917ZM16.0941 11.8107L15.6825 12.0945L20.6073 19.2381L21.0189 18.9543L21.4306 18.6705L16.5058 11.5269L16.0941 11.8107ZM21.0189 18.9543L21.4306 19.2381L26.3554 12.0945L25.9437 11.8107L25.5321 11.5269L20.6073 18.6705L21.0189 18.9543ZM25.9437 11.8107L26.3644 11.5405L21.4201 3.84228L20.9994 4.11249L20.5787 4.38269L25.523 12.0809L25.9437 11.8107ZM20.9994 4.11249L20.5777 3.8438L15.6724 11.542L16.0941 11.8107L16.5158 12.0794L21.4211 4.38117L20.9994 4.11249Z" fill="#9C7264"/>
</svg>
